<?xml version="1.0" encoding="utf-8"?>
<svg viewBox="200 86.595 362.277 138.197" xmlns="http://www.w3.org/2000/svg" xmlns:bx="https://boxy-svg.com">
  <defs>
    <style bx:fonts="Alumni Sans Inline One" bx:pinned="true">@import url(https://fonts.googleapis.com/css2?family=Alumni+Sans+Inline+One%3Aital%2Cwght%400%2C400%3B1%2C400&amp;display=swap);</style>
    <path id="text-path-0" d="M 282.282 318.221 C 305.725 234.385 392.966 343.541 416.409 427.376"/>
  </defs>
  <path d="M 433.753 265.911 C 433.753 282.447 428.082 297.507 418.964 308.35 C 409.839 319.2 397.111 325.973 383.161 325.973 C 369.211 325.973 356.483 319.199 347.358 308.35 C 338.24 297.507 332.569 282.447 332.569 265.911 C 332.569 249.375 338.24 234.315 347.358 223.472 C 356.483 212.622 369.211 205.849 383.161 205.849 C 397.111 205.849 409.839 212.623 418.964 223.472 C 428.082 234.315 433.753 249.375 433.753 265.911 Z M 418.199 224.116 C 409.194 213.409 396.876 206.849 383.161 206.849 C 369.446 206.849 357.128 213.409 348.123 224.116 C 339.112 234.831 333.569 249.552 333.569 265.911 C 333.569 282.271 339.112 296.991 348.123 307.706 C 357.128 318.413 369.446 324.973 383.161 324.973 C 396.876 324.973 409.194 318.413 418.199 307.706 C 427.21 296.991 432.753 282.27 432.753 265.911 C 432.753 249.552 427.21 234.831 418.199 224.116 Z" style="fill: none;"/>
  <path d="M 433.753 265.911 C 433.753 282.447 428.082 297.507 418.964 308.35 C 409.839 319.2 397.111 325.973 383.161 325.973 C 369.211 325.973 356.483 319.199 347.358 308.35 C 338.24 297.507 332.569 282.447 332.569 265.911 C 332.569 249.375 338.24 234.315 347.358 223.472 C 356.483 212.622 369.211 205.849 383.161 205.849 C 397.111 205.849 409.839 212.623 418.964 223.472 C 428.082 234.315 433.753 249.375 433.753 265.911 Z M 418.199 224.116 C 409.194 213.409 396.876 206.849 383.161 206.849 C 369.446 206.849 357.128 213.409 348.123 224.116 C 339.112 234.831 333.569 249.552 333.569 265.911 C 333.569 282.271 339.112 296.991 348.123 307.706 C 357.128 318.413 369.446 324.973 383.161 324.973 C 396.876 324.973 409.194 318.413 418.199 307.706 C 427.21 296.991 432.753 282.27 432.753 265.911 C 432.753 249.552 427.21 234.831 418.199 224.116 Z" style="fill: none;"/>
  <path d="M 433.753 265.911 C 433.753 282.447 428.082 297.507 418.964 308.35 C 409.839 319.2 397.111 325.973 383.161 325.973 C 369.211 325.973 356.483 319.199 347.358 308.35 C 338.24 297.507 332.569 282.447 332.569 265.911 C 332.569 249.375 338.24 234.315 347.358 223.472 C 356.483 212.622 369.211 205.849 383.161 205.849 C 397.111 205.849 409.839 212.623 418.964 223.472 C 428.082 234.315 433.753 249.375 433.753 265.911 Z M 418.199 224.116 C 409.194 213.409 396.876 206.849 383.161 206.849 C 369.446 206.849 357.128 213.409 348.123 224.116 C 339.112 234.831 333.569 249.552 333.569 265.911 C 333.569 282.271 339.112 296.991 348.123 307.706 C 357.128 318.413 369.446 324.973 383.161 324.973 C 396.876 324.973 409.194 318.413 418.199 307.706 C 427.21 296.991 432.753 282.27 432.753 265.911 C 432.753 249.552 427.21 234.831 418.199 224.116 Z" style="fill: none;"/>
  <path d="M 433.753 265.911 C 433.753 282.447 428.082 297.507 418.964 308.35 C 409.839 319.2 397.111 325.973 383.161 325.973 C 369.211 325.973 356.483 319.199 347.358 308.35 C 338.24 297.507 332.569 282.447 332.569 265.911 C 332.569 249.375 338.24 234.315 347.358 223.472 C 356.483 212.622 369.211 205.849 383.161 205.849 C 397.111 205.849 409.839 212.623 418.964 223.472 C 428.082 234.315 433.753 249.375 433.753 265.911 Z M 418.199 224.116 C 409.194 213.409 396.876 206.849 383.161 206.849 C 369.446 206.849 357.128 213.409 348.123 224.116 C 339.112 234.831 333.569 249.552 333.569 265.911 C 333.569 282.271 339.112 296.991 348.123 307.706 C 357.128 318.413 369.446 324.973 383.161 324.973 C 396.876 324.973 409.194 318.413 418.199 307.706 C 427.21 296.991 432.753 282.27 432.753 265.911 C 432.753 249.552 427.21 234.831 418.199 224.116 Z" style="fill: none;"/>
  <path d="M 433.753 265.911 C 433.753 282.447 428.082 297.507 418.964 308.35 C 409.839 319.2 397.111 325.973 383.161 325.973 C 369.211 325.973 356.483 319.199 347.358 308.35 C 338.24 297.507 332.569 282.447 332.569 265.911 C 332.569 249.375 338.24 234.315 347.358 223.472 C 356.483 212.622 369.211 205.849 383.161 205.849 C 397.111 205.849 409.839 212.623 418.964 223.472 C 428.082 234.315 433.753 249.375 433.753 265.911 Z M 418.199 224.116 C 409.194 213.409 396.876 206.849 383.161 206.849 C 369.446 206.849 357.128 213.409 348.123 224.116 C 339.112 234.831 333.569 249.552 333.569 265.911 C 333.569 282.271 339.112 296.991 348.123 307.706 C 357.128 318.413 369.446 324.973 383.161 324.973 C 396.876 324.973 409.194 318.413 418.199 307.706 C 427.21 296.991 432.753 282.27 432.753 265.911 C 432.753 249.552 427.21 234.831 418.199 224.116 Z" style="fill: none;"/>
  <path style="fill: rgb(51, 154, 103);" d="M 260.16 112.371 C 256.667 118.637 258.531 130.326 260.16 137.641 L 268.49 143.2 L 260.42 142.527 C 258.091 141.924 255.082 154.419 260.551 168.47 C 270.214 174.722 275.813 170.616 280.595 168.302 C 285.71 157.276 281.281 140.435 280.204 142.527 L 272.785 137.136 L 280.595 137.136 C 281.215 139.465 282.731 117.426 279.814 112.371 C 275.568 109.069 265.295 107.251 260.16 112.371 Z"/>
  <path style="" d="M 242.175 110.155 C 230.673 108.455 230.727 115.996 231.113 121.817 L 231.55 157.79 C 230.977 171.376 244.505 169.617 244.505 169.617 L 253.82 169.289 L 251.927 109.99 L 242.175 110.155 Z"/>
  <path style="" d="M 286.217 111.492 L 287.815 171.083 L 302.037 171.083 C 309.553 173.302 308.11 162.699 308.11 159.312 L 307.436 141.493 L 299.19 141.244 C 299.776 142.233 308.716 136.912 307.31 134.543 C 307.622 130.869 306.908 120.177 306.831 120.565 C 307.429 111.985 304.63 110.024 300.855 110.51 L 286.217 111.492 Z"/>
  <text style="font-family: &quot;Noto Sans CJK HK&quot;; font-size: 41px; font-weight: 700; white-space: pre;" transform="matrix(0.61198, 0, 0, 0.731007, 179.062241, -71.86927)"><tspan x="226.406" y="287.593">クリエターズ</tspan><tspan x="226.406" dy="1em">​</tspan><tspan>スカウトバンク</tspan></text>
  <rect x="230.999" y="-200" width="262.671" height="11.463" style="" transform="matrix(1, 0, 0, -1, 0, 0)"/>
</svg>