<?xml version="1.0" encoding="utf-8"?>
<svg viewBox="10.676 50.415 521.944 196.916" xmlns="http://www.w3.org/2000/svg" xmlns:bx="https://boxy-svg.com">
  <defs>
    <style bx:fonts="Alumni Sans Inline One" bx:pinned="true">@import url(https://fonts.googleapis.com/css2?family=Alumni+Sans+Inline+One%3Aital%2Cwght%400%2C400%3B1%2C400&amp;display=swap);</style>
    <path id="text-path-0" d="M 282.282 318.221 C 305.725 234.385 392.966 343.541 416.409 427.376"/>
  </defs>
  <g transform="matrix(0.488984, 0, 0, 0.488984, 404.416382, 198.734344)"/>
  <path d="M 433.753 265.911 C 433.753 282.447 428.082 297.507 418.964 308.35 C 409.839 319.2 397.111 325.973 383.161 325.973 C 369.211 325.973 356.483 319.199 347.358 308.35 C 338.24 297.507 332.569 282.447 332.569 265.911 C 332.569 249.375 338.24 234.315 347.358 223.472 C 356.483 212.622 369.211 205.849 383.161 205.849 C 397.111 205.849 409.839 212.623 418.964 223.472 C 428.082 234.315 433.753 249.375 433.753 265.911 Z M 418.199 224.116 C 409.194 213.409 396.876 206.849 383.161 206.849 C 369.446 206.849 357.128 213.409 348.123 224.116 C 339.112 234.831 333.569 249.552 333.569 265.911 C 333.569 282.271 339.112 296.991 348.123 307.706 C 357.128 318.413 369.446 324.973 383.161 324.973 C 396.876 324.973 409.194 318.413 418.199 307.706 C 427.21 296.991 432.753 282.27 432.753 265.911 C 432.753 249.552 427.21 234.831 418.199 224.116 Z" style="fill: none;"/>
  <path d="M 433.753 265.911 C 433.753 282.447 428.082 297.507 418.964 308.35 C 409.839 319.2 397.111 325.973 383.161 325.973 C 369.211 325.973 356.483 319.199 347.358 308.35 C 338.24 297.507 332.569 282.447 332.569 265.911 C 332.569 249.375 338.24 234.315 347.358 223.472 C 356.483 212.622 369.211 205.849 383.161 205.849 C 397.111 205.849 409.839 212.623 418.964 223.472 C 428.082 234.315 433.753 249.375 433.753 265.911 Z M 418.199 224.116 C 409.194 213.409 396.876 206.849 383.161 206.849 C 369.446 206.849 357.128 213.409 348.123 224.116 C 339.112 234.831 333.569 249.552 333.569 265.911 C 333.569 282.271 339.112 296.991 348.123 307.706 C 357.128 318.413 369.446 324.973 383.161 324.973 C 396.876 324.973 409.194 318.413 418.199 307.706 C 427.21 296.991 432.753 282.27 432.753 265.911 C 432.753 249.552 427.21 234.831 418.199 224.116 Z" style="fill: none;"/>
  <path d="M 433.753 265.911 C 433.753 282.447 428.082 297.507 418.964 308.35 C 409.839 319.2 397.111 325.973 383.161 325.973 C 369.211 325.973 356.483 319.199 347.358 308.35 C 338.24 297.507 332.569 282.447 332.569 265.911 C 332.569 249.375 338.24 234.315 347.358 223.472 C 356.483 212.622 369.211 205.849 383.161 205.849 C 397.111 205.849 409.839 212.623 418.964 223.472 C 428.082 234.315 433.753 249.375 433.753 265.911 Z M 418.199 224.116 C 409.194 213.409 396.876 206.849 383.161 206.849 C 369.446 206.849 357.128 213.409 348.123 224.116 C 339.112 234.831 333.569 249.552 333.569 265.911 C 333.569 282.271 339.112 296.991 348.123 307.706 C 357.128 318.413 369.446 324.973 383.161 324.973 C 396.876 324.973 409.194 318.413 418.199 307.706 C 427.21 296.991 432.753 282.27 432.753 265.911 C 432.753 249.552 427.21 234.831 418.199 224.116 Z" style="fill: none;"/>
  <path d="M 433.753 265.911 C 433.753 282.447 428.082 297.507 418.964 308.35 C 409.839 319.2 397.111 325.973 383.161 325.973 C 369.211 325.973 356.483 319.199 347.358 308.35 C 338.24 297.507 332.569 282.447 332.569 265.911 C 332.569 249.375 338.24 234.315 347.358 223.472 C 356.483 212.622 369.211 205.849 383.161 205.849 C 397.111 205.849 409.839 212.623 418.964 223.472 C 428.082 234.315 433.753 249.375 433.753 265.911 Z M 418.199 224.116 C 409.194 213.409 396.876 206.849 383.161 206.849 C 369.446 206.849 357.128 213.409 348.123 224.116 C 339.112 234.831 333.569 249.552 333.569 265.911 C 333.569 282.271 339.112 296.991 348.123 307.706 C 357.128 318.413 369.446 324.973 383.161 324.973 C 396.876 324.973 409.194 318.413 418.199 307.706 C 427.21 296.991 432.753 282.27 432.753 265.911 C 432.753 249.552 427.21 234.831 418.199 224.116 Z" style="fill: none;"/>
  <path d="M 433.753 265.911 C 433.753 282.447 428.082 297.507 418.964 308.35 C 409.839 319.2 397.111 325.973 383.161 325.973 C 369.211 325.973 356.483 319.199 347.358 308.35 C 338.24 297.507 332.569 282.447 332.569 265.911 C 332.569 249.375 338.24 234.315 347.358 223.472 C 356.483 212.622 369.211 205.849 383.161 205.849 C 397.111 205.849 409.839 212.623 418.964 223.472 C 428.082 234.315 433.753 249.375 433.753 265.911 Z M 418.199 224.116 C 409.194 213.409 396.876 206.849 383.161 206.849 C 369.446 206.849 357.128 213.409 348.123 224.116 C 339.112 234.831 333.569 249.552 333.569 265.911 C 333.569 282.271 339.112 296.991 348.123 307.706 C 357.128 318.413 369.446 324.973 383.161 324.973 C 396.876 324.973 409.194 318.413 418.199 307.706 C 427.21 296.991 432.753 282.27 432.753 265.911 C 432.753 249.552 427.21 234.831 418.199 224.116 Z" style="fill: none;"/>
  <path style="fill: rgb(255, 253, 253);" d="M 158.382 107.599 C 154.889 113.865 156.753 125.554 158.382 132.869 L 166.712 138.428 L 158.642 137.755 C 156.313 137.152 153.304 149.647 158.773 163.698 C 168.436 169.95 174.035 165.844 178.817 163.53 C 183.932 152.504 179.503 135.663 178.426 137.755 L 171.007 132.364 L 178.817 132.364 C 179.437 134.693 180.953 112.654 178.036 107.599 C 173.79 104.297 163.517 102.479 158.382 107.599 Z"/>
  <path style="fill: rgb(255, 255, 255);" d="M 140.397 105.383 C 128.895 103.683 128.949 111.224 129.335 117.045 L 129.772 153.018 C 129.199 166.604 142.727 164.845 142.727 164.845 L 152.042 164.517 L 150.149 105.218 L 140.397 105.383 Z"/>
  <path style="fill: rgb(255, 254, 254);" d="M 184.439 106.72 L 186.037 166.311 L 200.259 166.311 C 207.775 168.53 206.332 157.927 206.332 154.54 L 205.658 136.721 L 197.412 136.472 C 197.998 137.461 206.938 132.14 205.532 129.771 C 205.844 126.097 205.13 115.405 205.053 115.793 C 205.651 107.213 202.852 105.252 199.077 105.738 L 184.439 106.72 Z"/>
  <text style="fill: rgb(255, 255, 255); font-family: &quot;Noto Sans CJK HK&quot;; font-size: 41px; font-weight: 700; white-space: pre;" transform="matrix(0.61198, 0, 0, 0.731007, 77.284882, -76.640938)"><tspan x="226.406" y="287.593">クリエターズ</tspan><tspan x="226.406" dy="1em">​</tspan><tspan>スカウトバンク</tspan></text>
  <rect x="128.116" y="-187.622" width="262.671" height="11.463" style="fill: rgb(255, 255, 255);" transform="matrix(1, 0, 0, -1, 0, 0)"/>
</svg>